# xmcd CD database file
#
# Track frame offsets:
#	150
#	1113
#	25419
#	48899
#	60688
#	88192
#	118853
#	134524
#	165976
#	192278
#	199490
#	220186
#
# Disc length: 3163 seconds
#
# Revision: 0
# Processed by: cddbd v1.5.1PL2 Copyright (c) Steve Scherf et al.
# Submitted via: CDex 1.51
#
DISCID=a70c590c
DTITLE=Yamajet - jetgrind
DYEAR=2005
DGENRE=Pop
TTITLE0=Welcome to the jetgrind!!
TTITLE1=Hungrygirl Longing feat. yumico
TTITLE2=over the ocean feat. miromu
TTITLE3=2038 (farfetched fakejazz edit)
TTITLE4=supersoulsimulator
TTITLE5=Flusso bianco della neve (Re-construction feat. moham)
TTITLE6=recombination (T.E.Respects)
TTITLE7=Colored (original mix)
TTITLE8=Vanishing memories
TTITLE9=the sound of gradually (afterglow)
TTITLE10=not discouragement
TTITLE11=2038
EXTD=YEAR: 2005
EXTT0=
EXTT1=
EXTT2=
EXTT3=
EXTT4=
EXTT5=
EXTT6=
EXTT7=
EXTT8=
EXTT9=
EXTT10=
EXTT11=
PLAYORDER=
